# AST/ASF file generated using VICON BodyLanguage
# -----------------------------------------------
:version 1.10
:name VICON
:units
  mass 1.0
  length 0.45
  angle deg
:documentation
   .ast/.asf automatically generated from VICON data using
   VICON BodyBuilder and BodyLanguage model FoxedUp or BRILLIANT.MOD
:root
   order TX TY TZ RX RY RZ
   axis XYZ
   position 0 0 0  
   orientation 0 0 0 
:bonedata
  begin
     id 1 
     name lhipjoint
     direction 0.822369 -0.411937 0.392449 
     length 3.8167 
     axis 0 0 0  XYZ
  end
  begin
     id 2 
     name lfemur
     direction 0.34202 -0.939693 0  
     length 6.16791  
     axis 0 0 20  XYZ
    dof rx ry rz
    limits (-160.0 20.0)
           (-70.0 70.0)
           (-60.0 70.0)
  end
  begin
     id 3 
     name ltibia
     direction 0.34202 -0.939693 0   
     length 7.07101   
     axis 0 0 20   XYZ
    dof rx
    limits (-10.0 170.0)
  end
  begin
     id 4 
     name lfoot
     direction 0.028254 -0.0776273 0.996582   
     length 1.66799   
     axis -90 7.62852e-016 20   XYZ
    dof rx rz
    limits (-45.0 90.0)
           (-70.0 20.0)
  end
  begin
     id 5 
     name ltoes
     direction 1.53483e-011 -4.21688e-011 1   
     length 0.851674   
     axis -90 7.62852e-016 20   XYZ
    dof rx
    limits (-90.0 20.0)
  end
  begin
     id 6 
     name rhipjoint
     direction -0.822466 -0.411836 0.392353   
     length 3.81764  
     axis 0 0 0  XYZ 
  end
  begin
     id 7 
     name rfemur
     direction -0.34202 -0.939693 0   
     length 6.28636   
     axis 0 0 -20   XYZ
    dof rx ry rz
    limits (-160.0 20.0)
           (-70.0 70.0)
           (-70.0 60.0)
  end
  begin
     id 8 
     name rtibia
     direction -0.34202 -0.939693 0   
     length 6.85621   
     axis 0 0 -20   XYZ
    dof rx
    limits (-10.0 170.0)
 end
 begin
     id 9 
     name rfoot
     direction -0.0553036 -0.151945 0.98684   
     length 1.57293  
     axis -90 -7.62852e-016 -20   XYZ
    dof rx rz
    limits (-45.0 90.0)
           (-20.0 70.0)
  end
  begin
     id 10 
     name rtoes
     direction -1.53592e-011 -4.21964e-011 1   
     length 0.802812   
     axis -90 -7.62852e-016 -20   XYZ
    dof rx
    limits (-90.0 20.0)
  end
  begin
     id 11 
     name lowerback
     direction 0.00654913 0.996475 -0.0836396   
     length 1.97212   
     axis 0 0 0   XYZ
    dof rx ry rz
    limits (-20.0 45.0)
           (-30.0 30.0)
           (-30.0 30.0)
  end
  begin
     id 12 
     name upperback
     direction 0.0111875 0.994527 0.103877   
     length 1.89704   
     axis 0 0 0   XYZ
    dof rx ry rz
    limits (-20.0 45.0)
           (-30.0 30.0)
           (-30.0 30.0)
  end
  begin
     id 13 
     name thorax
     direction 0.00473652 0.989004 0.147814   
     length 1.94516   
     axis 0 0 0   XYZ
    dof rx ry rz
    limits (-20.0 45.0)
           (-30.0 30.0)
           (-30.0 30.0)
  end
  begin
     id 14 
     name lowerneck
     direction -0.00925808 0.999011 0.0434791   
     length 1.81771   
     axis 0 0 0   XYZ
    dof rx ry rz
    limits (-20.0 45.0)
           (-30.0 30.0)
           (-30.0 30.0)
  end
  begin
     id 15 
     name upperneck
     direction 0.00451595 0.964412 -0.264365   
     length 1.80434   
     axis 0 0 0   XYZ
    dof rx ry rz
    limits (-20.0 45.0)
           (-30.0 30.0)
           (-30.0 30.0)
  end
  begin
     id 16
     name head
     direction -0.00110849 0.995756 -0.0920241  
     length 1.84006  
     axis 0 0 0   XYZ
    dof rx ry rz
    limits (-20.0 45.0)
           (-30.0 30.0)
           (-30.0 30.0)
  end
  begin
     id 17 
     name lclavicle
     direction 0.921253 0.385213 0.0538957  
     length 3.67415  
     axis 0 0 0   XYZ
    dof ry rz
    limits (-20.0 10.0)
           (0.0 20.0)
  end
  begin
     id 18 
     name lhumerus
     direction 1 -4.48961e-011 6.73441e-028   
     length 4.32712   
     axis 180 -30 -90   XYZ
    dof rx ry rz
    limits (-60.0 90.0)
           (-90.0 90.0)
           (-90.0 90.0)
  end
  begin
     id 19
     name lradius
     direction 1 -4.48985e-011 -9.53507e-028   
     length 3.28587   
     axis 180 -30 -90   XYZ
    dof rx
    limits (-10.0 170.0)
  end
  begin
     id 20
     name lwrist
     direction 1 -4.48951e-011 -4.67472e-027   
     length 1.64293   
     axis 1.65735e-015 90 90   XYZ
    dof ry
    limits (-180.0 0.0)
 end
  begin
     id 21 
     name lhand
     direction 1 -4.48946e-011 -9.34945e-027   
     length 0.433158   
     axis 5.96574e-015 90 90   XYZ
    dof rx rz
    limits (-90.0 90.0)
           (-45.0 45.0)
  end
  begin
     id 22 
     name lfingers
     direction 1 -4.48882e-011 -1.86989e-026   
     length 0.349224   
     axis 1.19315e-014 90 90   XYZ
    dof rx
    limits (0.0 90.0)
  end
  begin
     id 23
     name lthumb
     direction 0.707107 -6.3493e-011 0.707107   
     length 0.501417   
     axis -90 45 2.85299e-015   XYZ
    dof rx rz
    limits (-45.0 45.0)
           (-45.0 45.0)
  end
  begin
     id 24 
     name rclavicle
     direction -0.884378 0.46502 -0.0403866   
     length 3.50218  
     axis 0 0 0   XYZ 
    dof ry rz
    limits (-10.0 20.0)
           (-20.0 0.0)
  end
  begin
     id 25 
     name rhumerus
     direction -1 -4.48964e-011 1.58188e-027  
     length 4.29104   
     axis 180 30 90   XYZ
    dof rx ry rz
    limits (-90.0 60.0)
           (-90.0 90.0)
           (-90.0 90.0)
  end
  begin
     id 26 
     name rradius
     direction -1 -4.48978e-011 -1.9722e-027   
     length 3.2272   
     axis 180 30 90   XYZ
    dof rx
    limits (-10.0 170.0)
  end
  begin
     id 27 
     name rwrist
     direction -1 -4.48969e-011 -4.67472e-027   
     length 1.6136   
     axis 1.65735e-015 -90 -90   XYZ
    dof ry
    limits (-180.0 0.0)
  end
  begin
     id 28
     name rhand
     direction -1 -4.48846e-011 -9.34945e-027   
     length 0.543623   
     axis 5.96574e-015 -90 -90   XYZ
    dof rx rz
    limits (-90.0 90.0)
           (-45.0 45.0)
  end
  begin
     id 29
     name rfingers
     direction -1 -4.49074e-011 -1.86989e-026   
     length 0.438283   
     axis 1.19315e-014 -90 -90   XYZ
    dof rx
    limits (0.0 90.0)
  end
  begin
     id 30
     name rthumb
     direction -0.707107 -6.34834e-011 0.707107   
     length 0.629289   
     axis -90 -45 -2.85299e-015   XYZ
    dof rx rz
    limits (-45.0 45.0)
           (-45.0 45.0)
  end
:hierarchy
  begin
    root lhipjoint rhipjoint lowerback
    lhipjoint lfemur
    lfemur ltibia
    ltibia lfoot
    lfoot ltoes
    rhipjoint rfemur
    rfemur rtibia
    rtibia rfoot
    rfoot rtoes
    lowerback upperback
    upperback thorax
    thorax lowerneck lclavicle rclavicle
    lowerneck upperneck
    upperneck head
    lclavicle lhumerus
    lhumerus lradius
    lradius lwrist
    lwrist lhand lthumb
    lhand lfingers
    rclavicle rhumerus
    rhumerus rradius
    rradius rwrist
    rwrist rhand rthumb
    rhand rfingers
  end

#!OML:ASF H:\GeneralSubjects\Female5\Project 1\Capture day 1\Session 1\Female5.ASF
:FULLY-SPECIFIED
:DEGREES
224
root 29.7704 15.6098 7.75263 373.023 -71.6313 358.194
lowerback 15.7504 5.84419 7.17824
upperback -12.8413 8.2917 -8.20961
thorax -21.6636 1.2892 -16.7561
lowerneck -7.92966 -5.89368 5.34276
upperneck 39.7735 -17.4018 12.0817
head 16.8796 -5.6965 1.39761
rclavicle -2.44505e-014 -1.11319e-014
rhumerus -55.9634 -4.00373 -85.6938
rradius 32.635
rwrist -10.5635
rhand -19.7026 -17.895
rfingers 7.12502
rthumb 6.62695 -47.7713
lclavicle -2.44505e-014 -1.11319e-014
lhumerus -41.9349 -28.9813 77.2177
lradius 41.8697
lwrist -0.700938
lhand -28.3657 36.1818
lfingers 7.12502
lthumb -1.7391 66.1545
rfemur -30.6032 -7.51295 31.5844
rtibia 54.0295
rfoot -14.4691 -9.17144
rtoes -28.4248
lfemur -10.4018 -19.042 -26.6594
ltibia 13.8016
lfoot -21.9246 11.5932
ltoes -69.2753
225
root 29.65 15.6152 7.81923 372.221 -73.182 358.894
lowerback 16.3847 5.78855 7.53427
upperback -12.7448 8.26555 -8.6
thorax -21.8798 1.1215 -17.573
lowerneck -8.05821 -5.96195 5.34007
upperneck 39.726 -17.6743 12.2992
head 16.9526 -5.80172 1.43249
rclavicle 1.28216e-013 -3.81667e-014
rhumerus -56.0656 -4.56351 -86.4285
rradius 33.3172
rwrist -10.3835
rhand -19.8474 -17.604
rfingers 7.12502
rthumb 6.48713 -47.4847
lclavicle 1.28216e-013 -3.81667e-014
lhumerus -40.9364 -30.0939 76.6346
lradius 40.4811
lwrist -1.23896
lhand -28.0038 34.4678
lfingers 7.12502
lthumb -1.38961 64.4431
rfemur -32.5878 -7.03936 31.8301
rtibia 51.5836
rfoot -14.5326 -11.8662
rtoes -37.7374
lfemur -8.55262 -19.0457 -27.5165
ltibia 12.4307
lfoot -22.7992 12.8208
ltoes -69.0945
226
root 29.524 15.6204 7.88263 371.241 -74.68 359.851
lowerback 16.9812 5.76828 7.74722
upperback -12.6989 8.25435 -8.94975
thorax -22.1636 0.972029 -18.2716
lowerneck -8.23965 -6.04746 5.39636
upperneck 39.754 -17.9424 12.3593
head 17.0478 -5.90409 1.38836
rclavicle -1.08338e-013 -9.54166e-015
rhumerus -56.4178 -5.46567 -86.5032
rradius 34.2856
rwrist -10.6891
rhand -18.7406 -16.9324
rfingers 7.12502
rthumb 7.55557 -46.7775
lclavicle -1.08338e-013 -9.54166e-015
lhumerus -40.0636 -30.9944 76.1423
lradius 39.0512
lwrist -1.91357
lhand -28.3487 35.3867
lfingers 7.12502
lthumb -1.7227 65.3594
rfemur -34.1758 -5.64855 31.3934
rtibia 48.2651
rfoot -16.7797 -11.6689
rtoes -32.4568
lfemur -6.79078 -19.0308 -28.4196
ltibia 11.0423
lfoot -23.6957 13.7845
ltoes -68.9704
227
root 29.3868 15.6195 7.94492 370.066 -76.2099 361.064
lowerback 17.4563 5.8154 7.84765
upperback -12.6892 8.30189 -9.27375
thorax -22.4118 0.872306 -18.8751
lowerneck -8.4316 -6.27059 5.45228
upperneck 40.0264 -18.4384 12.2329
head 17.2738 -6.10873 1.22595
rclavicle 3.77691e-015 6.20208e-014
rhumerus -57.0483 -5.99577 -86.8667
rradius 35.5031
rwrist -10.6513
rhand -19.6222 -17.0337
rfingers 7.12502
rthumb 6.7045 -46.9075
lclavicle 3.77691e-015 6.20208e-014
lhumerus -39.3251 -31.8937 75.7772
lradius 37.7026
lwrist -2.68999
lhand -28.0654 35.4749
lfingers 7.12502
lthumb -1.4491 65.4497
rfemur -35.5521 -4.25924 30.8536
rtibia 44.5142
rfoot -18.2248 -12.4156
rtoes -28.8174
lfemur -5.03563 -18.9674 -29.3734
ltibia 9.54839
lfoot -24.6903 14.6011
ltoes -68.7586
228
root 29.2414 15.6141 8.00343 368.372 -77.6882 362.844
lowerback 17.8997 5.88058 7.93323
upperback -12.6953 8.36444 -9.61138
thorax -22.6563 0.775218 -19.498
lowerneck -8.61048 -6.39782 5.38878
upperneck 40.2573 -18.824 12.2943
head 17.5143 -6.26291 1.1836
rclavicle -8.26944e-014 1.74931e-014
rhumerus -57.6453 -6.40091 -87.31
rradius 36.4187
rwrist -10.6618
rhand -19.8045 -16.808
rfingers 7.12502
rthumb 6.52851 -46.6874
lclavicle -8.26944e-014 1.74931e-014
lhumerus -38.6021 -32.9176 75.5479
lradius 36.2897
lwrist -3.24072
lhand -27.6335 35.9063
lfingers 7.12502
lthumb -1.0319 65.8836
rfemur -36.6756 -2.77686 30.0359
rtibia 40.1413
rfoot -20.3759 -13.2386
rtoes -20.8545
lfemur -3.34521 -18.9649 -30.4132
ltibia 8.10407
lfoot -24.9892 16.4565
ltoes -68.8552
229
root 29.089 15.6056 8.05549 366.09 -78.8871 365.282
lowerback 18.2997 5.8888 8.02392
upperback -12.7089 8.34191 -9.954
thorax -22.9195 0.630885 -20.1125
lowerneck -8.73945 -6.48454 5.28237
upperneck 40.3314 -19.154 12.5269
head 17.6868 -6.39182 1.23314
rclavicle 1.10127e-013 -7.15625e-014
rhumerus -58.2015 -7.01438 -87.4645
rradius 37.1174
rwrist -10.8495
rhand -19.0349 -17.2103
rfingers 7.12502
rthumb 7.27148 -47.0654
lclavicle 1.10127e-013 -7.15625e-014
lhumerus -37.7732 -32.9638 75.0712
lradius 34.9101
lwrist -4.37995
lhand -27.9267 36.4646
lfingers 7.12502
lthumb -1.31513 66.4403
rfemur -37.4529 -1.16439 28.823
rtibia 34.968
rfoot -20.2513 -14.5318
rtoes -17.0902
lfemur -1.84053 -19.1392 -31.4684
ltibia 6.83128
lfoot -25.2509 18.124
ltoes -68.8421
230
root 28.927 15.5907 8.10214 363.889 -79.7829 367.7
lowerback 18.5677 5.83633 8.167
upperback -12.7371 8.25255 -10.2471
thorax -23.1424 0.460486 -20.658
lowerneck -8.77625 -6.59689 5.22819
upperneck 40.3104 -19.4765 12.7304
head 17.7676 -6.5256 1.26564
rclavicle 1.23246e-014 -3.18055e-015
rhumerus -58.8734 -7.6051 -87.5676
rradius 37.7829
rwrist -11.3214
rhand -17.9246 -18.6064
rfingers 7.12502
rthumb 8.34309 -48.4216
lclavicle 1.23246e-014 -3.18055e-015
lhumerus -37.3498 -33.6169 75.0015
lradius 33.8878
lwrist -4.62507
lhand -25.7449 34.111
lfingers 7.12502
lthumb 0.792174 64.0893
rfemur -37.895 0.734248 27.2328
rtibia 29.1306
rfoot -20.8647 -15.9653
rtoes -12.3393
lfemur -0.343512 -19.7421 -32.46
ltibia 5.48742
lfoot -25.7018 20.478
ltoes -69.2269
231
root 28.7555 15.568 8.14473 361.605 -80.5304 370.235
lowerback 18.7696 5.78521 8.28302
upperback -12.8002 8.16296 -10.4914
thorax -23.3828 0.295115 -21.1217
lowerneck -8.76978 -6.75464 5.28821
upperneck 40.3475 -19.8051 12.7158
head 17.814 -6.6689 1.18505
rclavicle 3.83654e-014 -1.11319e-014
rhumerus -59.7663 -8.08144 -87.7475
rradius 38.3041
rwrist -11.8432
rhand -16.8867 -20.745
rfingers 7.12502
rthumb 9.34462 -50.5179
lclavicle 3.83654e-014 -1.11319e-014
lhumerus -37.0132 -33.9666 74.9248
lradius 32.9892
lwrist -5.01699
lhand -25.3679 33.2833
lfingers 7.12502
lthumb 1.15624 63.2599
rfemur -38.1943 3.11388 25.1196
rtibia 22.9937
rfoot -21.3845 -17.8963
rtoes -9.23607
lfemur 1.25771 -20.7308 -33.5044
ltibia 4.01136
lfoot -26.2537 22.9508
ltoes -69.4697
232
root 28.5731 15.5387 8.18524 358.692 -81.144 373.485
lowerback 18.8514 5.76256 8.35578
upperback -12.8776 8.09328 -10.7322
thorax -23.5595 0.157351 -21.5389
lowerneck -8.79658 -6.92873 5.25529
upperneck 40.369 -20.1257 12.6984
head 17.8661 -6.81797 1.11771
rclavicle -6.34123e-014 -2.70347e-014
rhumerus -60.8083 -8.66309 -87.7441
rradius 38.6803
rwrist -11.783
rhand -16.2875 -22.7787
rfingers 7.12502
rthumb 9.92279 -52.5248
lclavicle -6.34123e-014 -2.70347e-014
lhumerus -36.3731 -33.6503 74.6038
lradius 31.9807
lwrist -6.30251
lhand -26.2293 35.658
lfingers 7.12502
lthumb 0.324253 65.6375
rfemur -38.3523 6.24791 22.1391
rtibia 16.542
rfoot -21.6404 -20.4541
rtoes -6.6028
lfemur 2.84677 -21.9997 -34.6943
ltibia 2.5496
lfoot -27.1731 25.2188
ltoes -69.4976
233
root 28.3785 15.5024 8.22334 355.575 -81.5879 376.99
lowerback 18.807 5.75593 8.4853
upperback -12.9382 8.06436 -10.9588
thorax -23.5972 0.0591954 -21.95
lowerneck -8.87181 -7.14902 5.10309
upperneck 40.3144 -20.461 12.6901
head 17.8981 -6.98631 1.06672
rclavicle 3.85642e-014 -1.20861e-013
rhumerus -61.8628 -9.43618 -87.4328
rradius 38.8583
rwrist -11.2142
rhand -17.3898 -21.9126
rfingers 7.12502
rthumb 8.85917 -51.7067
lclavicle 3.85642e-014 -1.20861e-013
lhumerus -35.9519 -33.5701 74.7092
lradius 31.2256
lwrist -7.70473
lhand -28.1864 42.5947
lfingers 7.12502
lthumb -1.56594 72.5687
rfemur -38.4523 11.0119 17.7065
rtibia 10.0357
rfoot -23.2944 -24.3119
rtoes -2.34159
lfemur 4.50931 -23.6204 -35.998
ltibia 1.08858
lfoot -28.2807 27.5214
ltoes -69.4609
